<svg xmlns="http://www.w3.org/2000/svg" width="999" height="119" viewBox="0 0 999 119" fill="none">
  <path fill-rule="evenodd" clip-rule="evenodd" d="M121.954 117.506C151.988 118.779 883.383 118.142 999.007 116.747C998.02 114.298 997.174 111.63 996.328 109.059L955.013 108.471L995.764 106.904C991.91 94.4341 989.278 81.9067 987.868 69.3222L965.871 68.0735L987.586 66.8983C985.894 48.9764 984.766 18.2251 987.868 0.254223H938.093C930.902 -0.284414 123.505 0.743879 5.20146 1.50287C7.17554 7.28097 8.82061 13.0509 10.1367 18.8127L26.0703 20.4531L18.879 21.9956L20.2891 23.1708L11.1237 24.1991C14.6958 42.8555 14.3668 61.4303 10.1367 79.9235L22.2631 80.9519L16.1999 82.7391L33.2616 84.1592L8.86761 85.163C6.89353 92.8345 4.26144 100.498 0.971313 108.153L121.954 117.408V117.506Z" fill="url(#paint0_linear_0_241)"/>
  <defs>
    <linearGradient id="paint0_linear_0_241" x1="499.989" y1="118.191" x2="499.989" y2="0.205249" gradientUnits="userSpaceOnUse">
      <stop stop-color="#FFF7ED"/>
      <stop offset="1" stop-color="#FFFAF4"/>
    </linearGradient>
  </defs>
</svg>